<?xml version="1.0" encoding="UTF-8" standalone="no"?>
<!DOCTYPE svg PUBLIC "-//W3C//DTD SVG 1.1//EN"
 "http://www.w3.org/Graphics/SVG/1.1/DTD/svg11.dtd">
<!-- Generated by graphviz version 2.38.0 (20140413.2041)
 -->
<!-- Title: world Pages: 1 -->
<svg width="3498pt" height="720pt"
 viewBox="0.00 0.00 3498.07 720.00" xmlns="http://www.w3.org/2000/svg" xmlns:xlink="http://www.w3.org/1999/xlink">
<g id="graph0" class="graph" transform="scale(0.942408 0.942408) rotate(0) translate(4 760)">
<title>world</title>
<polygon fill="white" stroke="none" points="-4,4 -4,-760 3707.84,-760 3707.84,4 -4,4"/>
<!-- flavors -->
<g id="node1" class="node"><title>flavors</title>
<ellipse fill="none" stroke="black" cx="271.246" cy="-594" rx="35.194" ry="18"/>
<text text-anchor="middle" x="271.246" y="-590.3" font-family="Times,serif" font-size="14.00">flavors</text>
</g>
<!-- servers -->
<g id="node23" class="node"><title>servers</title>
<ellipse fill="none" stroke="black" cx="1821.25" cy="-522" rx="35.9954" ry="18"/>
<text text-anchor="middle" x="1821.25" y="-518.3" font-family="Times,serif" font-size="14.00">servers</text>
</g>
<!-- flavors&#45;&gt;servers -->
<g id="edge10" class="edge"><title>flavors&#45;&gt;servers</title>
<path fill="none" stroke="black" d="M306.489,-592.084C526.268,-586.328 1701.91,-554.929 1776.25,-540 1779.26,-539.395 1782.34,-538.612 1785.4,-537.715"/>
<polygon fill="black" stroke="black" points="1786.62,-540.998 1795.02,-534.541 1784.43,-534.351 1786.62,-540.998"/>
</g>
<!-- cf_portal -->
<g id="node24" class="node"><title>cf_portal</title>
<ellipse fill="none" stroke="black" cx="42.2463" cy="-522" rx="42.4939" ry="18"/>
<text text-anchor="middle" x="42.2463" y="-518.3" font-family="Times,serif" font-size="14.00">cf_portal</text>
</g>
<!-- flavors&#45;&gt;cf_portal -->
<g id="edge11" class="edge"><title>flavors&#45;&gt;cf_portal</title>
<path fill="none" stroke="black" d="M241.236,-584.386C205.781,-574.134 145.06,-556.345 93.2463,-540 90.1755,-539.031 87.0061,-538.015 83.8206,-536.981"/>
<polygon fill="black" stroke="black" points="84.8902,-533.649 74.2974,-533.86 82.7095,-540.301 84.8902,-533.649"/>
</g>
<!-- cf_database -->
<g id="node25" class="node"><title>cf_database</title>
<ellipse fill="none" stroke="black" cx="154.246" cy="-522" rx="51.9908" ry="18"/>
<text text-anchor="middle" x="154.246" y="-518.3" font-family="Times,serif" font-size="14.00">cf_database</text>
</g>
<!-- flavors&#45;&gt;cf_database -->
<g id="edge12" class="edge"><title>flavors&#45;&gt;cf_database</title>
<path fill="none" stroke="black" d="M249.239,-579.834C232.018,-569.53 207.772,-555.024 188.086,-543.246"/>
<polygon fill="black" stroke="black" points="189.782,-540.182 179.404,-538.052 186.188,-546.189 189.782,-540.182"/>
</g>
<!-- cf_worker -->
<g id="node26" class="node"><title>cf_worker</title>
<ellipse fill="none" stroke="black" cx="271.246" cy="-522" rx="46.5926" ry="18"/>
<text text-anchor="middle" x="271.246" y="-518.3" font-family="Times,serif" font-size="14.00">cf_worker</text>
</g>
<!-- flavors&#45;&gt;cf_worker -->
<g id="edge13" class="edge"><title>flavors&#45;&gt;cf_worker</title>
<path fill="none" stroke="black" d="M271.246,-575.697C271.246,-567.983 271.246,-558.712 271.246,-550.112"/>
<polygon fill="black" stroke="black" points="274.746,-550.104 271.246,-540.104 267.746,-550.104 274.746,-550.104"/>
</g>
<!-- networks -->
<g id="node2" class="node"><title>networks</title>
<ellipse fill="none" stroke="black" cx="1048.25" cy="-594" rx="42.7926" ry="18"/>
<text text-anchor="middle" x="1048.25" y="-590.3" font-family="Times,serif" font-size="14.00">networks</text>
</g>
<!-- networks&#45;&gt;servers -->
<g id="edge14" class="edge"><title>networks&#45;&gt;servers</title>
<path fill="none" stroke="black" d="M1090.85,-591.51C1226.04,-586.531 1644.14,-569.117 1776.25,-540 1779.25,-539.338 1782.32,-538.515 1785.37,-537.591"/>
<polygon fill="black" stroke="black" points="1786.61,-540.867 1794.98,-534.369 1784.39,-534.23 1786.61,-540.867"/>
</g>
<!-- cloudforms&#45;bastion&#45;network -->
<g id="node27" class="node"><title>cloudforms&#45;bastion&#45;network</title>
<ellipse fill="none" stroke="black" cx="1168.25" cy="-522" rx="111.28" ry="18"/>
<text text-anchor="middle" x="1168.25" y="-518.3" font-family="Times,serif" font-size="14.00">cloudforms&#45;bastion&#45;network</text>
</g>
<!-- networks&#45;&gt;cloudforms&#45;bastion&#45;network -->
<g id="edge15" class="edge"><title>networks&#45;&gt;cloudforms&#45;bastion&#45;network</title>
<path fill="none" stroke="black" d="M1072.24,-579.003C1089.13,-569.152 1112.05,-555.779 1131.27,-544.571"/>
<polygon fill="black" stroke="black" points="1133.2,-547.494 1140.08,-539.432 1129.68,-541.447 1133.2,-547.494"/>
</g>
<!-- cloudforms&#45;portal&#45;network -->
<g id="node28" class="node"><title>cloudforms&#45;portal&#45;network</title>
<ellipse fill="none" stroke="black" cx="442.246" cy="-522" rx="106.681" ry="18"/>
<text text-anchor="middle" x="442.246" y="-518.3" font-family="Times,serif" font-size="14.00">cloudforms&#45;portal&#45;network</text>
</g>
<!-- networks&#45;&gt;cloudforms&#45;portal&#45;network -->
<g id="edge16" class="edge"><title>networks&#45;&gt;cloudforms&#45;portal&#45;network</title>
<path fill="none" stroke="black" d="M1006.88,-589.059C922.445,-580.895 724.188,-561.126 558.246,-540 548.63,-538.776 538.577,-537.419 528.583,-536.021"/>
<polygon fill="black" stroke="black" points="529.018,-532.547 518.627,-534.612 528.038,-539.478 529.018,-532.547"/>
</g>
<!-- cloudforms&#45;database&#45;network -->
<g id="node29" class="node"><title>cloudforms&#45;database&#45;network</title>
<ellipse fill="none" stroke="black" cx="683.246" cy="-522" rx="116.18" ry="18"/>
<text text-anchor="middle" x="683.246" y="-518.3" font-family="Times,serif" font-size="14.00">cloudforms&#45;database&#45;network</text>
</g>
<!-- networks&#45;&gt;cloudforms&#45;database&#45;network -->
<g id="edge17" class="edge"><title>networks&#45;&gt;cloudforms&#45;database&#45;network</title>
<path fill="none" stroke="black" d="M1009.87,-585.641C951.632,-574.471 839.618,-552.989 763.169,-538.328"/>
<polygon fill="black" stroke="black" points="763.575,-534.842 753.095,-536.396 762.257,-541.717 763.575,-534.842"/>
</g>
<!-- cloudforms&#45;worker&#45;network -->
<g id="node30" class="node"><title>cloudforms&#45;worker&#45;network</title>
<ellipse fill="none" stroke="black" cx="928.246" cy="-522" rx="110.48" ry="18"/>
<text text-anchor="middle" x="928.246" y="-518.3" font-family="Times,serif" font-size="14.00">cloudforms&#45;worker&#45;network</text>
</g>
<!-- networks&#45;&gt;cloudforms&#45;worker&#45;network -->
<g id="edge18" class="edge"><title>networks&#45;&gt;cloudforms&#45;worker&#45;network</title>
<path fill="none" stroke="black" d="M1024.25,-579.003C1007.36,-569.152 984.439,-555.779 965.226,-544.571"/>
<polygon fill="black" stroke="black" points="966.817,-541.447 956.415,-539.432 963.29,-547.494 966.817,-541.447"/>
</g>
<!-- networks&#45;rbac -->
<g id="node3" class="node"><title>networks&#45;rbac</title>
<ellipse fill="none" stroke="black" cx="1668.25" cy="-594" rx="61.1893" ry="18"/>
<text text-anchor="middle" x="1668.25" y="-590.3" font-family="Times,serif" font-size="14.00">networks&#45;rbac</text>
</g>
<!-- networks&#45;rbac&#45;&gt;servers -->
<g id="edge23" class="edge"><title>networks&#45;rbac&#45;&gt;servers</title>
<path fill="none" stroke="black" d="M1699.95,-578.496C1725.21,-566.94 1760.52,-550.782 1786.54,-538.88"/>
<polygon fill="black" stroke="black" points="1788.03,-542.047 1795.66,-534.704 1785.11,-535.682 1788.03,-542.047"/>
</g>
<!-- cloudforms&#45;undercloud&#45;network&#45;rbac -->
<g id="node35" class="node"><title>cloudforms&#45;undercloud&#45;network&#45;rbac</title>
<ellipse fill="none" stroke="black" cx="1441.25" cy="-522" rx="143.775" ry="18"/>
<text text-anchor="middle" x="1441.25" y="-518.3" font-family="Times,serif" font-size="14.00">cloudforms&#45;undercloud&#45;network&#45;rbac</text>
</g>
<!-- networks&#45;rbac&#45;&gt;cloudforms&#45;undercloud&#45;network&#45;rbac -->
<g id="edge24" class="edge"><title>networks&#45;rbac&#45;&gt;cloudforms&#45;undercloud&#45;network&#45;rbac</title>
<path fill="none" stroke="black" d="M1627.66,-580.485C1592.79,-569.732 1541.99,-554.067 1502.23,-541.805"/>
<polygon fill="black" stroke="black" points="1503.22,-538.448 1492.63,-538.846 1501.16,-545.137 1503.22,-538.448"/>
</g>
<!-- keypairs -->
<g id="node4" class="node"><title>keypairs</title>
<ellipse fill="none" stroke="black" cx="1787.25" cy="-594" rx="40.0939" ry="18"/>
<text text-anchor="middle" x="1787.25" y="-590.3" font-family="Times,serif" font-size="14.00">keypairs</text>
</g>
<!-- keypairs&#45;&gt;servers -->
<g id="edge25" class="edge"><title>keypairs&#45;&gt;servers</title>
<path fill="none" stroke="black" d="M1795.48,-576.055C1799.44,-567.887 1804.29,-557.912 1808.7,-548.824"/>
<polygon fill="black" stroke="black" points="1811.87,-550.313 1813.09,-539.789 1805.57,-547.255 1811.87,-550.313"/>
</g>
<!-- cloudforms_keypair -->
<g id="node36" class="node"><title>cloudforms_keypair</title>
<ellipse fill="none" stroke="black" cx="1685.25" cy="-522" rx="81.7856" ry="18"/>
<text text-anchor="middle" x="1685.25" y="-518.3" font-family="Times,serif" font-size="14.00">cloudforms_keypair</text>
</g>
<!-- keypairs&#45;&gt;cloudforms_keypair -->
<g id="edge26" class="edge"><title>keypairs&#45;&gt;cloudforms_keypair</title>
<path fill="none" stroke="black" d="M1766.11,-578.496C1752.13,-568.9 1733.52,-556.13 1717.68,-545.26"/>
<polygon fill="black" stroke="black" points="1719.44,-542.22 1709.21,-539.448 1715.48,-547.992 1719.44,-542.22"/>
</g>
<!-- affinity -->
<g id="node5" class="node"><title>affinity</title>
<ellipse fill="none" stroke="black" cx="1962.25" cy="-594" rx="36.2938" ry="18"/>
<text text-anchor="middle" x="1962.25" y="-590.3" font-family="Times,serif" font-size="14.00">affinity</text>
</g>
<!-- affinity&#45;&gt;servers -->
<g id="edge27" class="edge"><title>affinity&#45;&gt;servers</title>
<path fill="none" stroke="black" d="M1937.36,-580.647C1914.51,-569.301 1880.45,-552.391 1855.12,-539.816"/>
<polygon fill="black" stroke="black" points="1856.39,-536.542 1845.88,-535.23 1853.28,-542.812 1856.39,-536.542"/>
</g>
<!-- portal_affinity_policy -->
<g id="node37" class="node"><title>portal_affinity_policy</title>
<ellipse fill="none" stroke="black" cx="1962.25" cy="-522" rx="87.9851" ry="18"/>
<text text-anchor="middle" x="1962.25" y="-518.3" font-family="Times,serif" font-size="14.00">portal_affinity_policy</text>
</g>
<!-- affinity&#45;&gt;portal_affinity_policy -->
<g id="edge28" class="edge"><title>affinity&#45;&gt;portal_affinity_policy</title>
<path fill="none" stroke="black" d="M1962.25,-575.697C1962.25,-567.983 1962.25,-558.712 1962.25,-550.112"/>
<polygon fill="black" stroke="black" points="1965.75,-550.104 1962.25,-540.104 1958.75,-550.104 1965.75,-550.104"/>
</g>
<!-- database_affinity_policy -->
<g id="node38" class="node"><title>database_affinity_policy</title>
<ellipse fill="none" stroke="black" cx="2165.25" cy="-522" rx="97.4827" ry="18"/>
<text text-anchor="middle" x="2165.25" y="-518.3" font-family="Times,serif" font-size="14.00">database_affinity_policy</text>
</g>
<!-- affinity&#45;&gt;database_affinity_policy -->
<g id="edge29" class="edge"><title>affinity&#45;&gt;database_affinity_policy</title>
<path fill="none" stroke="black" d="M1991.33,-582.971C2022.66,-572.167 2073.2,-554.74 2111.74,-541.449"/>
<polygon fill="black" stroke="black" points="2112.95,-544.735 2121.26,-538.166 2110.67,-538.117 2112.95,-544.735"/>
</g>
<!-- worker_affinity_policy -->
<g id="node39" class="node"><title>worker_affinity_policy</title>
<ellipse fill="none" stroke="black" cx="2373.25" cy="-522" rx="92.0841" ry="18"/>
<text text-anchor="middle" x="2373.25" y="-518.3" font-family="Times,serif" font-size="14.00">worker_affinity_policy</text>
</g>
<!-- affinity&#45;&gt;worker_affinity_policy -->
<g id="edge30" class="edge"><title>affinity&#45;&gt;worker_affinity_policy</title>
<path fill="none" stroke="black" d="M1996.23,-587.212C2061.57,-576.083 2206.22,-551.448 2296.14,-536.132"/>
<polygon fill="black" stroke="black" points="2296.75,-539.58 2306.02,-534.451 2295.57,-532.679 2296.75,-539.58"/>
</g>
<!-- security -->
<g id="node6" class="node"><title>security</title>
<ellipse fill="none" stroke="black" cx="2546.25" cy="-594" rx="38.1938" ry="18"/>
<text text-anchor="middle" x="2546.25" y="-590.3" font-family="Times,serif" font-size="14.00">security</text>
</g>
<!-- common_secgroup -->
<g id="node19" class="node"><title>common_secgroup</title>
<ellipse fill="none" stroke="black" cx="2600.25" cy="-522" rx="78.7863" ry="18"/>
<text text-anchor="middle" x="2600.25" y="-518.3" font-family="Times,serif" font-size="14.00">common_secgroup</text>
</g>
<!-- security&#45;&gt;common_secgroup -->
<g id="edge32" class="edge"><title>security&#45;&gt;common_secgroup</title>
<path fill="none" stroke="black" d="M2558.77,-576.765C2565.33,-568.268 2573.5,-557.677 2580.85,-548.146"/>
<polygon fill="black" stroke="black" points="2583.7,-550.18 2587.04,-540.124 2578.16,-545.904 2583.7,-550.18"/>
</g>
<!-- bastion_secgroup -->
<g id="node20" class="node"><title>bastion_secgroup</title>
<ellipse fill="none" stroke="black" cx="2769.25" cy="-522" rx="72.2875" ry="18"/>
<text text-anchor="middle" x="2769.25" y="-518.3" font-family="Times,serif" font-size="14.00">bastion_secgroup</text>
</g>
<!-- security&#45;&gt;bastion_secgroup -->
<g id="edge33" class="edge"><title>security&#45;&gt;bastion_secgroup</title>
<path fill="none" stroke="black" d="M2575.49,-582.142C2581.35,-580.046 2587.48,-577.909 2593.25,-576 2633.22,-562.761 2678.76,-549.087 2713.49,-538.944"/>
<polygon fill="black" stroke="black" points="2714.82,-542.202 2723.45,-536.048 2712.87,-535.481 2714.82,-542.202"/>
</g>
<!-- security&#45;&gt;servers -->
<g id="edge31" class="edge"><title>security&#45;&gt;servers</title>
<path fill="none" stroke="black" d="M2508.14,-591.492C2383.56,-586.336 1989.28,-568.15 1865.25,-540 1862.57,-539.392 1859.84,-538.652 1857.11,-537.824"/>
<polygon fill="black" stroke="black" points="1857.98,-534.421 1847.38,-534.526 1855.73,-541.051 1857.98,-534.421"/>
</g>
<!-- database_secgroup -->
<g id="node40" class="node"><title>database_secgroup</title>
<ellipse fill="none" stroke="black" cx="2540.25" cy="-450" rx="77.1866" ry="18"/>
<text text-anchor="middle" x="2540.25" y="-446.3" font-family="Times,serif" font-size="14.00">database_secgroup</text>
</g>
<!-- security&#45;&gt;database_secgroup -->
<g id="edge40" class="edge"><title>security&#45;&gt;database_secgroup</title>
<path fill="none" stroke="black" d="M2532.55,-577.032C2524.95,-567.092 2516.24,-553.638 2512.25,-540 2507.74,-524.646 2508.4,-519.53 2512.25,-504 2514.58,-494.606 2518.91,-485.043 2523.48,-476.673"/>
<polygon fill="black" stroke="black" points="2526.64,-478.205 2528.65,-467.803 2520.59,-474.68 2526.64,-478.205"/>
</g>
<!-- portal_secgroup -->
<g id="node41" class="node"><title>portal_secgroup</title>
<ellipse fill="none" stroke="black" cx="2703.25" cy="-450" rx="67.6881" ry="18"/>
<text text-anchor="middle" x="2703.25" y="-446.3" font-family="Times,serif" font-size="14.00">portal_secgroup</text>
</g>
<!-- security&#45;&gt;portal_secgroup -->
<g id="edge41" class="edge"><title>security&#45;&gt;portal_secgroup</title>
<path fill="none" stroke="black" d="M2574.79,-581.609C2580.81,-579.507 2587.18,-577.504 2593.25,-576 2649.22,-562.117 2812.4,-583.515 2850.25,-540 2881.3,-504.291 2817.43,-478.664 2764.35,-464.334"/>
<polygon fill="black" stroke="black" points="2765.15,-460.926 2754.59,-461.791 2763.38,-467.7 2765.15,-460.926"/>
</g>
<!-- worker_secgroup -->
<g id="node42" class="node"><title>worker_secgroup</title>
<ellipse fill="none" stroke="black" cx="2860.25" cy="-450" rx="71.4873" ry="18"/>
<text text-anchor="middle" x="2860.25" y="-446.3" font-family="Times,serif" font-size="14.00">worker_secgroup</text>
</g>
<!-- security&#45;&gt;worker_secgroup -->
<g id="edge42" class="edge"><title>security&#45;&gt;worker_secgroup</title>
<path fill="none" stroke="black" d="M2574.78,-581.564C2580.8,-579.465 2587.18,-577.475 2593.25,-576 2653.35,-561.395 2828.44,-586.479 2869.25,-540 2883.99,-523.205 2879.32,-497.167 2872.39,-477.585"/>
<polygon fill="black" stroke="black" points="2875.55,-476.06 2868.66,-468.017 2869.03,-478.605 2875.55,-476.06"/>
</g>
<!-- loadbalancer -->
<g id="node7" class="node"><title>loadbalancer</title>
<ellipse fill="none" stroke="black" cx="2658.25" cy="-594" rx="55.7903" ry="18"/>
<text text-anchor="middle" x="2658.25" y="-590.3" font-family="Times,serif" font-size="14.00">loadbalancer</text>
</g>
<!-- loadbalancer&#45;&gt;servers -->
<g id="edge43" class="edge"><title>loadbalancer&#45;&gt;servers</title>
<path fill="none" stroke="black" d="M2618.64,-581.256C2610.32,-579.18 2601.55,-577.277 2593.25,-576 2273.06,-526.754 2182.14,-607.231 1865.25,-540 1862.56,-539.43 1859.82,-538.718 1857.09,-537.91"/>
<polygon fill="black" stroke="black" points="1857.95,-534.505 1847.35,-534.653 1855.73,-541.144 1857.95,-534.505"/>
</g>
<!-- portal_lb -->
<g id="node43" class="node"><title>portal_lb</title>
<ellipse fill="none" stroke="black" cx="3240.25" cy="-522" rx="42.4939" ry="18"/>
<text text-anchor="middle" x="3240.25" y="-518.3" font-family="Times,serif" font-size="14.00">portal_lb</text>
</g>
<!-- loadbalancer&#45;&gt;portal_lb -->
<g id="edge44" class="edge"><title>loadbalancer&#45;&gt;portal_lb</title>
<path fill="none" stroke="black" d="M2709.64,-586.819C2820.38,-573.5 3080.33,-542.233 3190.02,-529.041"/>
<polygon fill="black" stroke="black" points="3190.64,-532.491 3200.15,-527.822 3189.81,-525.541 3190.64,-532.491"/>
</g>
<!-- cfme_db_password -->
<g id="node8" class="node"><title>cfme_db_password</title>
<ellipse fill="none" stroke="black" cx="1639.25" cy="-450" rx="79.0865" ry="18"/>
<text text-anchor="middle" x="1639.25" y="-446.3" font-family="Times,serif" font-size="14.00">cfme_db_password</text>
</g>
<!-- bastion | database | portal | worker -->
<g id="node48" class="node"><title>bastion | database | portal | worker</title>
<ellipse fill="none" stroke="black" cx="1821.25" cy="-378" rx="131.877" ry="18"/>
<text text-anchor="middle" x="1821.25" y="-374.3" font-family="Times,serif" font-size="14.00">bastion | database | portal | worker</text>
</g>
<!-- cfme_db_password&#45;&gt;bastion | database | portal | worker -->
<g id="edge51" class="edge"><title>cfme_db_password&#45;&gt;bastion | database | portal | worker</title>
<path fill="none" stroke="black" d="M1677.84,-434.155C1704.56,-423.879 1740.42,-410.086 1769.6,-398.865"/>
<polygon fill="black" stroke="black" points="1771.14,-402.023 1779.21,-395.167 1768.62,-395.49 1771.14,-402.023"/>
</g>
<!-- cfme_root_password -->
<g id="node9" class="node"><title>cfme_root_password</title>
<ellipse fill="none" stroke="black" cx="1821.25" cy="-450" rx="85.2851" ry="18"/>
<text text-anchor="middle" x="1821.25" y="-446.3" font-family="Times,serif" font-size="14.00">cfme_root_password</text>
</g>
<!-- cfme_root_password&#45;&gt;bastion | database | portal | worker -->
<g id="edge52" class="edge"><title>cfme_root_password&#45;&gt;bastion | database | portal | worker</title>
<path fill="none" stroke="black" d="M1821.25,-431.697C1821.25,-423.983 1821.25,-414.712 1821.25,-406.112"/>
<polygon fill="black" stroke="black" points="1824.75,-406.104 1821.25,-396.104 1817.75,-406.104 1824.75,-406.104"/>
</g>
<!-- my_instance_port -->
<g id="node10" class="node"><title>my_instance_port</title>
<ellipse fill="none" stroke="black" cx="1217.25" cy="-162" rx="74.187" ry="18"/>
<text text-anchor="middle" x="1217.25" y="-158.3" font-family="Times,serif" font-size="14.00">my_instance_port</text>
</g>
<!-- my_instance -->
<g id="node55" class="node"><title>my_instance</title>
<ellipse fill="none" stroke="black" cx="1899.25" cy="-90" rx="55.7903" ry="18"/>
<text text-anchor="middle" x="1899.25" y="-86.3" font-family="Times,serif" font-size="14.00">my_instance</text>
</g>
<!-- my_instance_port&#45;&gt;my_instance -->
<g id="edge72" class="edge"><title>my_instance_port&#45;&gt;my_instance</title>
<path fill="none" stroke="black" d="M1269.78,-149.302C1279.85,-147.324 1290.35,-145.447 1300.25,-144 1493.39,-115.769 1723.92,-100.504 1834.2,-94.3248"/>
<polygon fill="black" stroke="black" points="1834.7,-97.8025 1844.49,-93.755 1834.32,-90.8132 1834.7,-97.8025"/>
</g>
<!-- undercloud_port -->
<g id="node11" class="node"><title>undercloud_port</title>
<ellipse fill="none" stroke="black" cx="1378.25" cy="-162" rx="68.7879" ry="18"/>
<text text-anchor="middle" x="1378.25" y="-158.3" font-family="Times,serif" font-size="14.00">undercloud_port</text>
</g>
<!-- undercloud_port&#45;&gt;my_instance -->
<g id="edge73" class="edge"><title>undercloud_port&#45;&gt;my_instance</title>
<path fill="none" stroke="black" d="M1428.04,-149.405C1437.38,-147.441 1447.09,-145.542 1456.25,-144 1590.75,-121.35 1749.82,-104.783 1836.02,-96.6474"/>
<polygon fill="black" stroke="black" points="1836.53,-100.115 1846.16,-95.6972 1835.88,-93.1452 1836.53,-100.115"/>
</g>
<!-- mimepayload -->
<g id="node12" class="node"><title>mimepayload</title>
<ellipse fill="none" stroke="black" cx="1525.25" cy="-162" rx="59.5901" ry="18"/>
<text text-anchor="middle" x="1525.25" y="-158.3" font-family="Times,serif" font-size="14.00">mimepayload</text>
</g>
<!-- mimepayload&#45;&gt;my_instance -->
<g id="edge77" class="edge"><title>mimepayload&#45;&gt;my_instance</title>
<path fill="none" stroke="black" d="M1569.31,-149.659C1577.57,-147.671 1586.16,-145.697 1594.25,-144 1679.2,-126.176 1778.36,-109.747 1839.98,-100.047"/>
<polygon fill="black" stroke="black" points="1840.58,-103.496 1849.92,-98.4902 1839.5,-96.5804 1840.58,-103.496"/>
</g>
<!-- roledeployment -->
<g id="node13" class="node"><title>roledeployment</title>
<ellipse fill="none" stroke="black" cx="1669.25" cy="-162" rx="66.0889" ry="18"/>
<text text-anchor="middle" x="1669.25" y="-158.3" font-family="Times,serif" font-size="14.00">roledeployment</text>
</g>
<!-- roledeployment&#45;&gt;my_instance -->
<g id="edge79" class="edge"><title>roledeployment&#45;&gt;my_instance</title>
<path fill="none" stroke="black" d="M1711.7,-148.079C1750.91,-136.145 1809.14,-118.423 1850.3,-105.898"/>
<polygon fill="black" stroke="black" points="1851.56,-109.172 1860.11,-102.912 1849.52,-102.475 1851.56,-109.172"/>
</g>
<!-- timedeployment -->
<g id="node14" class="node"><title>timedeployment</title>
<ellipse fill="none" stroke="black" cx="1822.25" cy="-162" rx="68.7879" ry="18"/>
<text text-anchor="middle" x="1822.25" y="-158.3" font-family="Times,serif" font-size="14.00">timedeployment</text>
</g>
<!-- timedeployment&#45;&gt;my_instance -->
<g id="edge78" class="edge"><title>timedeployment&#45;&gt;my_instance</title>
<path fill="none" stroke="black" d="M1840.49,-144.411C1850.44,-135.367 1862.91,-124.03 1873.8,-114.13"/>
<polygon fill="black" stroke="black" points="1876.35,-116.545 1881.39,-107.228 1871.64,-111.365 1876.35,-116.545"/>
</g>
<!-- evmdeployment -->
<g id="node15" class="node"><title>evmdeployment</title>
<ellipse fill="none" stroke="black" cx="1977.25" cy="-162" rx="68.4888" ry="18"/>
<text text-anchor="middle" x="1977.25" y="-158.3" font-family="Times,serif" font-size="14.00">evmdeployment</text>
</g>
<!-- evmdeployment&#45;&gt;my_instance -->
<g id="edge80" class="edge"><title>evmdeployment&#45;&gt;my_instance</title>
<path fill="none" stroke="black" d="M1958.76,-144.411C1948.68,-135.367 1936.05,-124.03 1925.02,-114.13"/>
<polygon fill="black" stroke="black" points="1927.11,-111.303 1917.33,-107.228 1922.43,-116.512 1927.11,-111.303"/>
</g>
<!-- volumes -->
<g id="node16" class="node"><title>volumes</title>
<ellipse fill="none" stroke="black" cx="2104.25" cy="-162" rx="40.8928" ry="18"/>
<text text-anchor="middle" x="2104.25" y="-158.3" font-family="Times,serif" font-size="14.00">volumes</text>
</g>
<!-- volumes&#45;&gt;my_instance -->
<g id="edge81" class="edge"><title>volumes&#45;&gt;my_instance</title>
<path fill="none" stroke="black" d="M2072.66,-150.216C2038.7,-138.62 1984.37,-120.067 1945.57,-106.819"/>
<polygon fill="black" stroke="black" points="1946.66,-103.492 1936.07,-103.573 1944.4,-110.116 1946.66,-103.492"/>
</g>
<!-- ssa_disk -->
<g id="node17" class="node"><title>ssa_disk</title>
<ellipse fill="none" stroke="black" cx="2203.25" cy="-162" rx="40.0939" ry="18"/>
<text text-anchor="middle" x="2203.25" y="-158.3" font-family="Times,serif" font-size="14.00">ssa_disk</text>
</g>
<!-- ssa_disk&#45;&gt;my_instance -->
<g id="edge82" class="edge"><title>ssa_disk&#45;&gt;my_instance</title>
<path fill="none" stroke="black" d="M2173.12,-149.864C2166.92,-147.767 2160.41,-145.702 2154.25,-144 2087.64,-125.607 2009.69,-110.288 1957.67,-100.926"/>
<polygon fill="black" stroke="black" points="1958.09,-97.4446 1947.63,-99.1342 1956.86,-104.336 1958.09,-97.4446"/>
</g>
<!-- lb -->
<g id="node18" class="node"><title>lb</title>
<ellipse fill="none" stroke="black" cx="2288.25" cy="-162" rx="27" ry="18"/>
<text text-anchor="middle" x="2288.25" y="-158.3" font-family="Times,serif" font-size="14.00">lb</text>
</g>
<!-- lb&#45;&gt;my_instance -->
<g id="edge83" class="edge"><title>lb&#45;&gt;my_instance</title>
<path fill="none" stroke="black" d="M2267.72,-150.047C2262.76,-147.759 2257.4,-145.568 2252.25,-144 2154.34,-114.238 2035.86,-100.819 1964.09,-95.0429"/>
<polygon fill="black" stroke="black" points="1964.09,-91.5323 1953.85,-94.2451 1963.55,-98.5112 1964.09,-91.5323"/>
</g>
<!-- common_secgroup&#45;&gt;database_secgroup -->
<g id="edge34" class="edge"><title>common_secgroup&#45;&gt;database_secgroup</title>
<path fill="none" stroke="black" d="M2585.72,-504.055C2578.35,-495.457 2569.27,-484.857 2561.16,-475.397"/>
<polygon fill="black" stroke="black" points="2563.8,-473.104 2554.64,-467.789 2558.49,-477.659 2563.8,-473.104"/>
</g>
<!-- common_secgroup&#45;&gt;portal_secgroup -->
<g id="edge35" class="edge"><title>common_secgroup&#45;&gt;portal_secgroup</title>
<path fill="none" stroke="black" d="M2624.14,-504.765C2638.14,-495.244 2656.02,-483.093 2671.24,-472.752"/>
<polygon fill="black" stroke="black" points="2673.54,-475.422 2679.84,-466.906 2669.6,-469.632 2673.54,-475.422"/>
</g>
<!-- common_secgroup&#45;&gt;worker_secgroup -->
<g id="edge36" class="edge"><title>common_secgroup&#45;&gt;worker_secgroup</title>
<path fill="none" stroke="black" d="M2649.15,-507.834C2693,-496.027 2757.36,-478.7 2803.47,-466.285"/>
<polygon fill="black" stroke="black" points="2804.57,-469.615 2813.31,-463.636 2802.75,-462.856 2804.57,-469.615"/>
</g>
<!-- bastion_secgroup&#45;&gt;database_secgroup -->
<g id="edge37" class="edge"><title>bastion_secgroup&#45;&gt;database_secgroup</title>
<path fill="none" stroke="black" d="M2725.36,-507.586C2688.17,-496.217 2634.67,-479.862 2594.74,-467.656"/>
<polygon fill="black" stroke="black" points="2595.74,-464.303 2585.15,-464.727 2593.69,-470.997 2595.74,-464.303"/>
</g>
<!-- bastion_secgroup&#45;&gt;portal_secgroup -->
<g id="edge38" class="edge"><title>bastion_secgroup&#45;&gt;portal_secgroup</title>
<path fill="none" stroke="black" d="M2753.61,-504.411C2745.42,-495.734 2735.25,-484.946 2726.2,-475.342"/>
<polygon fill="black" stroke="black" points="2728.64,-472.831 2719.23,-467.956 2723.55,-477.633 2728.64,-472.831"/>
</g>
<!-- bastion_secgroup&#45;&gt;worker_secgroup -->
<g id="edge39" class="edge"><title>bastion_secgroup&#45;&gt;worker_secgroup</title>
<path fill="none" stroke="black" d="M2790.35,-504.765C2802.33,-495.554 2817.5,-483.882 2830.65,-473.769"/>
<polygon fill="black" stroke="black" points="2833.15,-476.261 2838.94,-467.39 2828.88,-470.713 2833.15,-476.261"/>
</g>
<!-- start -->
<g id="node21" class="node"><title>start</title>
<ellipse fill="none" stroke="black" cx="1821.25" cy="-738" rx="27" ry="18"/>
<text text-anchor="middle" x="1821.25" y="-734.3" font-family="Times,serif" font-size="14.00">start</text>
</g>
<!-- cloudforms&#45;cluster -->
<g id="node22" class="node"><title>cloudforms&#45;cluster</title>
<ellipse fill="none" stroke="black" cx="1821.25" cy="-666" rx="77.1866" ry="18"/>
<text text-anchor="middle" x="1821.25" y="-662.3" font-family="Times,serif" font-size="14.00">cloudforms&#45;cluster</text>
</g>
<!-- start&#45;&gt;cloudforms&#45;cluster -->
<g id="edge1" class="edge"><title>start&#45;&gt;cloudforms&#45;cluster</title>
<path fill="none" stroke="black" d="M1821.25,-719.697C1821.25,-711.983 1821.25,-702.712 1821.25,-694.112"/>
<polygon fill="black" stroke="black" points="1824.75,-694.104 1821.25,-684.104 1817.75,-694.104 1824.75,-694.104"/>
</g>
<!-- cloudforms&#45;cluster&#45;&gt;flavors -->
<g id="edge2" class="edge"><title>cloudforms&#45;cluster&#45;&gt;flavors</title>
<path fill="none" stroke="black" d="M1746.22,-661.612C1472.63,-649.256 533.168,-606.829 316.207,-597.03"/>
<polygon fill="black" stroke="black" points="316.282,-593.53 306.134,-596.576 315.966,-600.523 316.282,-593.53"/>
</g>
<!-- cloudforms&#45;cluster&#45;&gt;networks -->
<g id="edge3" class="edge"><title>cloudforms&#45;cluster&#45;&gt;networks</title>
<path fill="none" stroke="black" d="M1750.6,-658.602C1596.77,-644.672 1234.52,-611.868 1099.85,-599.673"/>
<polygon fill="black" stroke="black" points="1100.07,-596.179 1089.8,-598.763 1099.44,-603.15 1100.07,-596.179"/>
</g>
<!-- cloudforms&#45;cluster&#45;&gt;networks&#45;rbac -->
<g id="edge4" class="edge"><title>cloudforms&#45;cluster&#45;&gt;networks&#45;rbac</title>
<path fill="none" stroke="black" d="M1787.67,-649.638C1764.61,-639.086 1733.85,-625.013 1709.32,-613.792"/>
<polygon fill="black" stroke="black" points="1710.46,-610.467 1699.92,-609.489 1707.55,-616.832 1710.46,-610.467"/>
</g>
<!-- cloudforms&#45;cluster&#45;&gt;keypairs -->
<g id="edge5" class="edge"><title>cloudforms&#45;cluster&#45;&gt;keypairs</title>
<path fill="none" stroke="black" d="M1813.02,-648.055C1809.05,-639.887 1804.2,-629.912 1799.79,-620.824"/>
<polygon fill="black" stroke="black" points="1802.92,-619.255 1795.4,-611.789 1796.62,-622.313 1802.92,-619.255"/>
</g>
<!-- cloudforms&#45;cluster&#45;&gt;affinity -->
<g id="edge6" class="edge"><title>cloudforms&#45;cluster&#45;&gt;affinity</title>
<path fill="none" stroke="black" d="M1852.54,-649.465C1874.93,-638.349 1905.06,-623.392 1928.07,-611.965"/>
<polygon fill="black" stroke="black" points="1929.74,-615.043 1937.14,-607.462 1926.63,-608.773 1929.74,-615.043"/>
</g>
<!-- cloudforms&#45;cluster&#45;&gt;security -->
<g id="edge7" class="edge"><title>cloudforms&#45;cluster&#45;&gt;security</title>
<path fill="none" stroke="black" d="M1891.09,-658.256C2037.8,-644.092 2374.68,-611.565 2499.02,-599.56"/>
<polygon fill="black" stroke="black" points="2499.37,-603.042 2508.99,-598.597 2498.7,-596.074 2499.37,-603.042"/>
</g>
<!-- cloudforms&#45;cluster&#45;&gt;loadbalancer -->
<g id="edge8" class="edge"><title>cloudforms&#45;cluster&#45;&gt;loadbalancer</title>
<path fill="none" stroke="black" d="M1898.5,-664.466C2038.11,-662.446 2341.34,-653.215 2593.25,-612 2598.23,-611.185 2603.38,-610.16 2608.51,-609.019"/>
<polygon fill="black" stroke="black" points="2609.35,-612.416 2618.28,-606.707 2607.74,-605.604 2609.35,-612.416"/>
</g>
<!-- cloudforms&#45;cluster&#45;&gt;servers -->
<g id="edge9" class="edge"><title>cloudforms&#45;cluster&#45;&gt;servers</title>
<path fill="none" stroke="black" d="M1827.48,-647.593C1830.81,-637.374 1834.56,-624.124 1836.25,-612 1838.45,-596.152 1838.45,-591.848 1836.25,-576 1835.03,-567.246 1832.74,-557.905 1830.3,-549.541"/>
<polygon fill="black" stroke="black" points="1833.63,-548.447 1827.33,-539.93 1826.94,-550.518 1833.63,-548.447"/>
</g>
<!-- servers&#45;&gt;cfme_db_password -->
<g id="edge49" class="edge"><title>servers&#45;&gt;cfme_db_password</title>
<path fill="none" stroke="black" d="M1793.6,-510.369C1765.46,-499.542 1721.25,-482.541 1687.35,-469.502"/>
<polygon fill="black" stroke="black" points="1688.23,-466.089 1677.64,-465.766 1685.71,-472.622 1688.23,-466.089"/>
</g>
<!-- servers&#45;&gt;cfme_root_password -->
<g id="edge50" class="edge"><title>servers&#45;&gt;cfme_root_password</title>
<path fill="none" stroke="black" d="M1821.25,-503.697C1821.25,-495.983 1821.25,-486.712 1821.25,-478.112"/>
<polygon fill="black" stroke="black" points="1824.75,-478.104 1821.25,-468.104 1817.75,-478.104 1824.75,-478.104"/>
</g>
<!-- servers&#45;&gt;bastion | database | portal | worker -->
<g id="edge53" class="edge"><title>servers&#45;&gt;bastion | database | portal | worker</title>
<path fill="none" stroke="black" d="M1847.8,-509.69C1872.86,-498.409 1907.69,-480.941 1915.25,-468 1923.32,-454.185 1923.32,-445.815 1915.25,-432 1907.03,-417.934 1893.55,-407.308 1879.33,-399.409"/>
<polygon fill="black" stroke="black" points="1880.92,-396.289 1870.42,-394.837 1877.72,-402.517 1880.92,-396.289"/>
</g>
<!-- cloudforms&#45;bastion&#45;subnet -->
<g id="node31" class="node"><title>cloudforms&#45;bastion&#45;subnet</title>
<ellipse fill="none" stroke="black" cx="1168.25" cy="-450" rx="105.082" ry="18"/>
<text text-anchor="middle" x="1168.25" y="-446.3" font-family="Times,serif" font-size="14.00">cloudforms&#45;bastion&#45;subnet</text>
</g>
<!-- cloudforms&#45;bastion&#45;network&#45;&gt;cloudforms&#45;bastion&#45;subnet -->
<g id="edge19" class="edge"><title>cloudforms&#45;bastion&#45;network&#45;&gt;cloudforms&#45;bastion&#45;subnet</title>
<path fill="none" stroke="black" d="M1168.25,-503.697C1168.25,-495.983 1168.25,-486.712 1168.25,-478.112"/>
<polygon fill="black" stroke="black" points="1171.75,-478.104 1168.25,-468.104 1164.75,-478.104 1171.75,-478.104"/>
</g>
<!-- cloudforms&#45;portal&#45;subnet -->
<g id="node32" class="node"><title>cloudforms&#45;portal&#45;subnet</title>
<ellipse fill="none" stroke="black" cx="442.246" cy="-450" rx="100.983" ry="18"/>
<text text-anchor="middle" x="442.246" y="-446.3" font-family="Times,serif" font-size="14.00">cloudforms&#45;portal&#45;subnet</text>
</g>
<!-- cloudforms&#45;portal&#45;network&#45;&gt;cloudforms&#45;portal&#45;subnet -->
<g id="edge20" class="edge"><title>cloudforms&#45;portal&#45;network&#45;&gt;cloudforms&#45;portal&#45;subnet</title>
<path fill="none" stroke="black" d="M442.246,-503.697C442.246,-495.983 442.246,-486.712 442.246,-478.112"/>
<polygon fill="black" stroke="black" points="445.746,-478.104 442.246,-468.104 438.746,-478.104 445.746,-478.104"/>
</g>
<!-- cloudforms&#45;database&#45;subnet -->
<g id="node33" class="node"><title>cloudforms&#45;database&#45;subnet</title>
<ellipse fill="none" stroke="black" cx="683.246" cy="-450" rx="110.48" ry="18"/>
<text text-anchor="middle" x="683.246" y="-446.3" font-family="Times,serif" font-size="14.00">cloudforms&#45;database&#45;subnet</text>
</g>
<!-- cloudforms&#45;database&#45;network&#45;&gt;cloudforms&#45;database&#45;subnet -->
<g id="edge21" class="edge"><title>cloudforms&#45;database&#45;network&#45;&gt;cloudforms&#45;database&#45;subnet</title>
<path fill="none" stroke="black" d="M683.246,-503.697C683.246,-495.983 683.246,-486.712 683.246,-478.112"/>
<polygon fill="black" stroke="black" points="686.746,-478.104 683.246,-468.104 679.746,-478.104 686.746,-478.104"/>
</g>
<!-- cloudforms&#45;worker&#45;subnet -->
<g id="node34" class="node"><title>cloudforms&#45;worker&#45;subnet</title>
<ellipse fill="none" stroke="black" cx="928.246" cy="-450" rx="104.782" ry="18"/>
<text text-anchor="middle" x="928.246" y="-446.3" font-family="Times,serif" font-size="14.00">cloudforms&#45;worker&#45;subnet</text>
</g>
<!-- cloudforms&#45;worker&#45;network&#45;&gt;cloudforms&#45;worker&#45;subnet -->
<g id="edge22" class="edge"><title>cloudforms&#45;worker&#45;network&#45;&gt;cloudforms&#45;worker&#45;subnet</title>
<path fill="none" stroke="black" d="M928.246,-503.697C928.246,-495.983 928.246,-486.712 928.246,-478.112"/>
<polygon fill="black" stroke="black" points="931.746,-478.104 928.246,-468.104 924.746,-478.104 931.746,-478.104"/>
</g>
<!-- portal_lb_listener_http -->
<g id="node44" class="node"><title>portal_lb_listener_http</title>
<ellipse fill="none" stroke="black" cx="3433.25" cy="-450" rx="90.9839" ry="18"/>
<text text-anchor="middle" x="3433.25" y="-446.3" font-family="Times,serif" font-size="14.00">portal_lb_listener_http</text>
</g>
<!-- portal_lb&#45;&gt;portal_lb_listener_http -->
<g id="edge45" class="edge"><title>portal_lb&#45;&gt;portal_lb_listener_http</title>
<path fill="none" stroke="black" d="M3271.26,-509.753C3301.06,-498.944 3346.64,-482.41 3381.87,-469.633"/>
<polygon fill="black" stroke="black" points="3383.31,-472.836 3391.51,-466.136 3380.92,-466.256 3383.31,-472.836"/>
</g>
<!-- portal_lb_pool_http -->
<g id="node45" class="node"><title>portal_lb_pool_http</title>
<ellipse fill="none" stroke="black" cx="3623.25" cy="-450" rx="80.6858" ry="18"/>
<text text-anchor="middle" x="3623.25" y="-446.3" font-family="Times,serif" font-size="14.00">portal_lb_pool_http</text>
</g>
<!-- portal_lb&#45;&gt;portal_lb_pool_http -->
<g id="edge46" class="edge"><title>portal_lb&#45;&gt;portal_lb_pool_http</title>
<path fill="none" stroke="black" d="M3278.66,-514.149C3334.66,-504.139 3442,-484.87 3533.25,-468 3539.86,-466.776 3546.76,-465.493 3553.65,-464.202"/>
<polygon fill="black" stroke="black" points="3554.53,-467.597 3563.71,-462.313 3553.24,-460.718 3554.53,-467.597"/>
</g>
<!-- portal_lb_listener_https -->
<g id="node46" class="node"><title>portal_lb_listener_https</title>
<ellipse fill="none" stroke="black" cx="3044.25" cy="-450" rx="94.4839" ry="18"/>
<text text-anchor="middle" x="3044.25" y="-446.3" font-family="Times,serif" font-size="14.00">portal_lb_listener_https</text>
</g>
<!-- portal_lb&#45;&gt;portal_lb_listener_https -->
<g id="edge47" class="edge"><title>portal_lb&#45;&gt;portal_lb_listener_https</title>
<path fill="none" stroke="black" d="M3208.76,-509.753C3178.49,-498.944 3132.19,-482.41 3096.42,-469.633"/>
<polygon fill="black" stroke="black" points="3097.22,-466.204 3086.63,-466.136 3094.87,-472.796 3097.22,-466.204"/>
</g>
<!-- portal_lb_pool_https -->
<g id="node47" class="node"><title>portal_lb_pool_https</title>
<ellipse fill="none" stroke="black" cx="3240.25" cy="-450" rx="83.6854" ry="18"/>
<text text-anchor="middle" x="3240.25" y="-446.3" font-family="Times,serif" font-size="14.00">portal_lb_pool_https</text>
</g>
<!-- portal_lb&#45;&gt;portal_lb_pool_https -->
<g id="edge48" class="edge"><title>portal_lb&#45;&gt;portal_lb_pool_https</title>
<path fill="none" stroke="black" d="M3240.25,-503.697C3240.25,-495.983 3240.25,-486.712 3240.25,-478.112"/>
<polygon fill="black" stroke="black" points="3243.75,-478.104 3240.25,-468.104 3236.75,-478.104 3243.75,-478.104"/>
</g>
<!-- cfme&#45;node -->
<g id="node49" class="node"><title>cfme&#45;node</title>
<ellipse fill="none" stroke="black" cx="1821.25" cy="-306" rx="48.9926" ry="18"/>
<text text-anchor="middle" x="1821.25" y="-302.3" font-family="Times,serif" font-size="14.00">cfme&#45;node</text>
</g>
<!-- bastion | database | portal | worker&#45;&gt;cfme&#45;node -->
<g id="edge54" class="edge"><title>bastion | database | portal | worker&#45;&gt;cfme&#45;node</title>
<path fill="none" stroke="black" d="M1821.25,-359.697C1821.25,-351.983 1821.25,-342.712 1821.25,-334.112"/>
<polygon fill="black" stroke="black" points="1824.75,-334.104 1821.25,-324.104 1817.75,-334.104 1824.75,-334.104"/>
</g>
<!-- cfme&#45;node&#45;&gt;my_instance_port -->
<g id="edge55" class="edge"><title>cfme&#45;node&#45;&gt;my_instance_port</title>
<path fill="none" stroke="black" d="M1772.76,-303.391C1695.21,-299.785 1539.09,-288.27 1412.25,-252 1354.69,-235.541 1292.47,-204.624 1254.17,-183.918"/>
<polygon fill="black" stroke="black" points="1255.42,-180.613 1244.97,-178.889 1252.07,-186.756 1255.42,-180.613"/>
</g>
<!-- cfme&#45;node&#45;&gt;undercloud_port -->
<g id="edge56" class="edge"><title>cfme&#45;node&#45;&gt;undercloud_port</title>
<path fill="none" stroke="black" d="M1773.48,-302.108C1687.59,-296.247 1510.99,-280.994 1457.25,-252 1430,-237.303 1407.59,-209.324 1393.68,-188.643"/>
<polygon fill="black" stroke="black" points="1396.46,-186.493 1388.08,-180.009 1390.59,-190.303 1396.46,-186.493"/>
</g>
<!-- cfme&#45;node&#45;&gt;mimepayload -->
<g id="edge60" class="edge"><title>cfme&#45;node&#45;&gt;mimepayload</title>
<path fill="none" stroke="black" d="M1774.76,-300.401C1730.74,-294.429 1664.01,-281.084 1613.25,-252 1605.47,-247.546 1571.19,-211.887 1547.78,-187.082"/>
<polygon fill="black" stroke="black" points="1550.31,-184.661 1540.9,-179.778 1545.21,-189.459 1550.31,-184.661"/>
</g>
<!-- cfme&#45;node&#45;&gt;roledeployment -->
<g id="edge63" class="edge"><title>cfme&#45;node&#45;&gt;roledeployment</title>
<path fill="none" stroke="black" d="M1803.66,-289.079C1792.12,-278.597 1776.73,-264.544 1763.25,-252 1746.21,-236.153 1742.14,-231.996 1725.25,-216 1715.12,-206.414 1703.97,-195.855 1694.29,-186.701"/>
<polygon fill="black" stroke="black" points="1696.57,-184.038 1686.9,-179.707 1691.76,-189.123 1696.57,-184.038"/>
</g>
<!-- cfme&#45;node&#45;&gt;timedeployment -->
<g id="edge64" class="edge"><title>cfme&#45;node&#45;&gt;timedeployment</title>
<path fill="none" stroke="black" d="M1845.26,-290.264C1857.93,-281.019 1872.26,-267.851 1879.25,-252 1885.7,-237.359 1885.64,-230.668 1879.25,-216 1874.1,-204.193 1864.89,-193.831 1855.35,-185.474"/>
<polygon fill="black" stroke="black" points="1857.3,-182.549 1847.34,-178.939 1852.87,-187.973 1857.3,-182.549"/>
</g>
<!-- cfme&#45;node&#45;&gt;evmdeployment -->
<g id="edge65" class="edge"><title>cfme&#45;node&#45;&gt;evmdeployment</title>
<path fill="none" stroke="black" d="M1867.28,-300.056C1923.33,-292.977 2013.05,-277.866 2033.25,-252 2049.88,-230.692 2028.54,-204.256 2007.58,-185.754"/>
<polygon fill="black" stroke="black" points="2009.55,-182.84 1999.65,-179.078 2005.05,-188.195 2009.55,-182.84"/>
</g>
<!-- cfme&#45;node&#45;&gt;volumes -->
<g id="edge67" class="edge"><title>cfme&#45;node&#45;&gt;volumes</title>
<path fill="none" stroke="black" d="M1870,-304.461C1919.69,-301.618 1996.86,-290.637 2050.25,-252 2071.66,-236.5 2086.24,-209.653 2094.79,-189.489"/>
<polygon fill="black" stroke="black" points="2098.15,-190.512 2098.62,-179.927 2091.66,-187.911 2098.15,-190.512"/>
</g>
<!-- cfme&#45;node&#45;&gt;ssa_disk -->
<g id="edge68" class="edge"><title>cfme&#45;node&#45;&gt;ssa_disk</title>
<path fill="none" stroke="black" d="M1868.43,-301.371C1921.77,-295.92 2010.29,-282.749 2080.25,-252 2118.02,-235.397 2155.59,-205.82 2179.08,-185.344"/>
<polygon fill="black" stroke="black" points="2181.62,-187.771 2186.78,-178.517 2176.98,-182.533 2181.62,-187.771"/>
</g>
<!-- cfme&#45;node&#45;&gt;lb -->
<g id="edge69" class="edge"><title>cfme&#45;node&#45;&gt;lb</title>
<path fill="none" stroke="black" d="M1868.54,-301.565C1929.37,-296.069 2037.63,-282.62 2125.25,-252 2176.22,-234.187 2230.26,-201.593 2261.54,-181.179"/>
<polygon fill="black" stroke="black" points="2263.69,-183.948 2270.11,-175.516 2259.84,-178.107 2263.69,-183.948"/>
</g>
<!-- floating_ip -->
<g id="node50" class="node"><title>floating_ip</title>
<ellipse fill="none" stroke="black" cx="1231.25" cy="-234" rx="49.2915" ry="18"/>
<text text-anchor="middle" x="1231.25" y="-230.3" font-family="Times,serif" font-size="14.00">floating_ip</text>
</g>
<!-- cfme&#45;node&#45;&gt;floating_ip -->
<g id="edge57" class="edge"><title>cfme&#45;node&#45;&gt;floating_ip</title>
<path fill="none" stroke="black" d="M1774.76,-300.335C1689.78,-291.687 1503.69,-272.204 1347.25,-252 1327.23,-249.415 1305.31,-246.281 1285.97,-243.412"/>
<polygon fill="black" stroke="black" points="1286.22,-239.911 1275.82,-241.895 1285.19,-246.834 1286.22,-239.911"/>
</g>
<!-- nodeconfig -->
<g id="node51" class="node"><title>nodeconfig</title>
<ellipse fill="none" stroke="black" cx="1516.25" cy="-234" rx="50.0912" ry="18"/>
<text text-anchor="middle" x="1516.25" y="-230.3" font-family="Times,serif" font-size="14.00">nodeconfig</text>
</g>
<!-- cfme&#45;node&#45;&gt;nodeconfig -->
<g id="edge58" class="edge"><title>cfme&#45;node&#45;&gt;nodeconfig</title>
<path fill="none" stroke="black" d="M1779.76,-296.444C1731.63,-286.389 1649.98,-268.921 1580.25,-252 1575.21,-250.778 1569.96,-249.458 1564.73,-248.114"/>
<polygon fill="black" stroke="black" points="1565.32,-244.651 1554.76,-245.518 1563.55,-251.425 1565.32,-244.651"/>
</g>
<!-- timeconfig -->
<g id="node52" class="node"><title>timeconfig</title>
<ellipse fill="none" stroke="black" cx="1821.25" cy="-234" rx="49.2915" ry="18"/>
<text text-anchor="middle" x="1821.25" y="-230.3" font-family="Times,serif" font-size="14.00">timeconfig</text>
</g>
<!-- cfme&#45;node&#45;&gt;timeconfig -->
<g id="edge59" class="edge"><title>cfme&#45;node&#45;&gt;timeconfig</title>
<path fill="none" stroke="black" d="M1821.25,-287.697C1821.25,-279.983 1821.25,-270.712 1821.25,-262.112"/>
<polygon fill="black" stroke="black" points="1824.75,-262.104 1821.25,-252.104 1817.75,-262.104 1824.75,-262.104"/>
</g>
<!-- roleconfig -->
<g id="node53" class="node"><title>roleconfig</title>
<ellipse fill="none" stroke="black" cx="1669.25" cy="-234" rx="46.5926" ry="18"/>
<text text-anchor="middle" x="1669.25" y="-230.3" font-family="Times,serif" font-size="14.00">roleconfig</text>
</g>
<!-- cfme&#45;node&#45;&gt;roleconfig -->
<g id="edge61" class="edge"><title>cfme&#45;node&#45;&gt;roleconfig</title>
<path fill="none" stroke="black" d="M1791.94,-291.503C1767.81,-280.393 1733.44,-264.562 1707.21,-252.483"/>
<polygon fill="black" stroke="black" points="1708.5,-249.222 1697.95,-248.218 1705.57,-255.58 1708.5,-249.222"/>
</g>
<!-- evmconfig -->
<g id="node54" class="node"><title>evmconfig</title>
<ellipse fill="none" stroke="black" cx="1975.25" cy="-234" rx="48.9926" ry="18"/>
<text text-anchor="middle" x="1975.25" y="-230.3" font-family="Times,serif" font-size="14.00">evmconfig</text>
</g>
<!-- cfme&#45;node&#45;&gt;evmconfig -->
<g id="edge62" class="edge"><title>cfme&#45;node&#45;&gt;evmconfig</title>
<path fill="none" stroke="black" d="M1850.94,-291.503C1875.23,-280.464 1909.77,-264.764 1936.28,-252.714"/>
<polygon fill="black" stroke="black" points="1937.99,-255.78 1945.64,-248.455 1935.09,-249.407 1937.99,-255.78"/>
</g>
<!-- cfme&#45;node&#45;&gt;my_instance -->
<g id="edge66" class="edge"><title>cfme&#45;node&#45;&gt;my_instance</title>
<path fill="none" stroke="black" d="M1868.66,-301.316C1984.48,-291.148 2275.83,-258.103 2324.25,-180 2332.68,-166.401 2334.84,-155.993 2324.25,-144 2300.83,-117.482 2077.36,-101.101 1964.21,-94.4403"/>
<polygon fill="black" stroke="black" points="1964.13,-90.9299 1953.95,-93.8448 1963.73,-97.9182 1964.13,-90.9299"/>
</g>
<!-- floating_ip&#45;&gt;my_instance_port -->
<g id="edge71" class="edge"><title>floating_ip&#45;&gt;my_instance_port</title>
<path fill="none" stroke="black" d="M1227.79,-215.697C1226.24,-207.983 1224.39,-198.712 1222.67,-190.112"/>
<polygon fill="black" stroke="black" points="1226.06,-189.224 1220.67,-180.104 1219.2,-190.597 1226.06,-189.224"/>
</g>
<!-- nodeconfig&#45;&gt;mimepayload -->
<g id="edge70" class="edge"><title>nodeconfig&#45;&gt;mimepayload</title>
<path fill="none" stroke="black" d="M1518.47,-215.697C1519.46,-207.983 1520.65,-198.712 1521.76,-190.112"/>
<polygon fill="black" stroke="black" points="1525.24,-190.469 1523.05,-180.104 1518.3,-189.576 1525.24,-190.469"/>
</g>
<!-- timeconfig&#45;&gt;timedeployment -->
<g id="edge74" class="edge"><title>timeconfig&#45;&gt;timedeployment</title>
<path fill="none" stroke="black" d="M1821.49,-215.697C1821.6,-207.983 1821.74,-198.712 1821.86,-190.112"/>
<polygon fill="black" stroke="black" points="1825.36,-190.153 1822,-180.104 1818.36,-190.053 1825.36,-190.153"/>
</g>
<!-- roleconfig&#45;&gt;roledeployment -->
<g id="edge75" class="edge"><title>roleconfig&#45;&gt;roledeployment</title>
<path fill="none" stroke="black" d="M1669.25,-215.697C1669.25,-207.983 1669.25,-198.712 1669.25,-190.112"/>
<polygon fill="black" stroke="black" points="1672.75,-190.104 1669.25,-180.104 1665.75,-190.104 1672.75,-190.104"/>
</g>
<!-- evmconfig&#45;&gt;evmdeployment -->
<g id="edge76" class="edge"><title>evmconfig&#45;&gt;evmdeployment</title>
<path fill="none" stroke="black" d="M1975.74,-215.697C1975.96,-207.983 1976.23,-198.712 1976.47,-190.112"/>
<polygon fill="black" stroke="black" points="1979.97,-190.2 1976.76,-180.104 1972.97,-190 1979.97,-190.2"/>
</g>
<!-- end -->
<g id="node56" class="node"><title>end</title>
<ellipse fill="none" stroke="black" cx="1899.25" cy="-18" rx="27" ry="18"/>
<text text-anchor="middle" x="1899.25" y="-14.3" font-family="Times,serif" font-size="14.00">end</text>
</g>
<!-- my_instance&#45;&gt;end -->
<g id="edge84" class="edge"><title>my_instance&#45;&gt;end</title>
<path fill="none" stroke="black" d="M1899.25,-71.6966C1899.25,-63.9827 1899.25,-54.7125 1899.25,-46.1124"/>
<polygon fill="black" stroke="black" points="1902.75,-46.1043 1899.25,-36.1043 1895.75,-46.1044 1902.75,-46.1043"/>
</g>
</g>
</svg>
